<?xml version="1.0" encoding="UTF-8" standalone="no"?>
<!-- Created with Inkscape (http://www.inkscape.org/) -->

<svg
   xmlns:dc="http://purl.org/dc/elements/1.1/"
   xmlns:cc="http://creativecommons.org/ns#"
   xmlns:rdf="http://www.w3.org/1999/02/22-rdf-syntax-ns#"
   xmlns:svg="http://www.w3.org/2000/svg"
   xmlns="http://www.w3.org/2000/svg"
   version="1.1"
   width="607.58105"
   height="81.710358"
   id="svg3276">
  <defs
     id="defs3278" />
  <metadata
     id="metadata3281">
    <rdf:RDF>
      <cc:Work
         rdf:about="">
        <dc:format>image/svg+xml</dc:format>
        <dc:type
           rdf:resource="http://purl.org/dc/dcmitype/StillImage" />
        <dc:title></dc:title>
      </cc:Work>
    </rdf:RDF>
  </metadata>
  <g
     transform="translate(-62.219631,-419.48527)"
     id="layer1">
    <g
       id="g4136">
      <g
         id="g4116">
        <path
           d="m 124.47724,498.70987 c -5e-5,0.29615 -0.30625,0.44409 -0.91893,0.44409 -0.72752,0 -1.83789,-0.054 -3.33104,-0.16653 -1.49328,-0.11072 -2.60364,-0.16653 -3.33108,-0.16653 -0.80407,0 -2.00059,0.0541 -3.58949,0.16653 -1.58902,0.11072 -2.7855,0.16653 -3.58948,0.16653 -0.8807,0 -1.55076,-0.46263 -2.01013,-1.38731 -1.22526,-2.51572 -4.70951,-10.30315 -10.452671,-23.36236 -0.574315,-1.33181 -1.971857,-2.14564 -4.192536,-2.44169 -0.49782,-0.0351 -2.23988,-0.0541 -5.226314,-0.0541 -5.283785,9e-5 -8.423387,0.0743 -9.41885,0.22189 -0.804069,0.11073 -1.206103,1.05443 -1.206103,2.83015 0,2.58963 0.124345,6.46493 0.373474,11.62569 0.24869,5.1608 0.373475,9.01756 0.373475,11.57015 0,0.77691 -0.382702,1.16537 -1.148632,1.16537 -0.765798,0 -1.924009,-0.0835 -3.474631,-0.25001 -1.55071,-0.16652 -2.728033,-0.25001 -3.532102,-0.25001 -0.6509,0 -1.646363,0.0541 -2.986433,0.16653 -1.340115,0.11072 -2.335578,0.16652 -2.986478,0.16652 -0.957193,0 -1.435811,-0.42532 -1.435811,-1.27631 0,-4.10651 0.200797,-10.27529 0.603007,-18.50672 0.402034,-8.23142 0.603007,-14.40029 0.603007,-18.5068 0,-11.69036 -0.44026,-24.1576 -1.320913,-37.40193 l -0.05756,-0.88781 c -0.03954,-0.73979 0.765755,-1.10979 2.412118,-1.10988 3.292771,9e-5 8.22237,-0.083 14.788798,-0.25001 6.566384,-0.16653 11.476827,-0.25001 14.731327,-0.25001 8.499888,5e-5 15.315178,1.96074 20.445838,5.88218 5.66658,4.32848 8.49988,10.46959 8.49993,18.42354 -5e-5,5.47527 -0.7658,9.78521 -2.29726,12.92964 -1.60819,3.32964 -4.59466,6.4927 -8.95944,9.48924 -0.72753,0.48064 -1.09125,0.9434 -1.0912,1.38735 -5e-5,0.51777 2.28764,5.43823 6.86314,14.76099 4.57537,9.32275 6.86306,14.28003 6.86314,14.87197 z m -15.73637,-50.33166 c -5e-5,-6.69604 -1.99106,-11.17246 -5.97296,-13.42917 -2.948204,-1.66473 -8.251102,-2.4971 -15.908691,-2.49718 -6.202664,8e-5 -9.361467,0.48125 -9.476278,1.44284 -0.268023,1.99778 -0.402034,7.34352 -0.402034,16.03734 l 0,10.59903 c 0.115118,0.0743 0.363808,0.14807 0.746597,0.22233 0.689171,0.0743 1.818645,0.16652 3.388512,0.27725 3.637334,0.18498 7.561848,0.27725 11.773585,0.27725 10.567439,9e-5 15.851179,-4.30985 15.851219,-12.92973 z"
           id="path5381"
           style="font-size:19.2929039px;font-style:normal;font-variant:normal;font-weight:normal;font-stretch:normal;text-align:start;line-height:125%;letter-spacing:0px;word-spacing:0px;writing-mode:lr-tb;text-anchor:start;fill:#000000;fill-opacity:1;stroke:none;font-family:Berlin Sans FB;-inkscape-font-specification:Berlin Sans FB" />
        <path
           d="m 186.61878,487.99986 c -5e-5,0.59211 -0.15335,1.44279 -0.45947,2.55263 -0.34447,1.4058 -0.55524,2.25671 -0.63174,2.55267 -0.11512,1.33177 -0.38314,3.27401 -0.80407,5.82669 -0.19157,0.66588 -0.68926,0.99885 -1.49324,0.99885 -0.3827,0 -1.1104,-0.0743 -2.18241,-0.22233 -4.70946,-0.66584 -12.00333,-0.9988 -21.8816,-0.9988 -2.79508,0 -7.00678,0.0743 -12.63508,0.22232 -5.62835,0.14807 -9.84004,0.22233 -12.63508,0.22233 -1.26349,0 -1.89523,-0.53692 -1.89523,-1.60928 0,-4.14346 0.23946,-10.36783 0.7179,-18.6732 0.47858,-8.30537 0.71787,-14.52973 0.71791,-18.67324 -4e-5,-4.2174 -0.2298,-12.07882 -0.68921,-23.58434 -0.0765,-2.9595 -0.28736,-7.38042 -0.63175,-13.26265 l -0.0576,-0.77687 c -0.0395,-0.85077 0.45947,-1.27627 1.49324,-1.27631 2.68014,4e-5 6.7004,0.0743 12.06072,0.22188 5.36033,0.14808 9.38058,0.22233 12.06077,0.22233 2.56524,1.3e-4 6.40364,-0.0738 11.5151,-0.22233 5.11141,-0.14807 8.94981,-0.22188 11.51514,-0.22188 1.79948,4e-5 2.77583,0.53635 2.92905,1.60923 0.80398,4.88338 1.20601,7.91696 1.20606,9.10078 -5e-5,0.85095 -0.42137,1.27641 -1.26349,1.27632 -3.25455,9e-5 -8.18414,-0.17575 -14.7888,-0.52735 -6.6047,-0.35194 -11.57257,-0.52739 -14.90361,-0.52739 -3.13964,9e-5 -5.12104,0.40687 -5.94417,1.22087 -0.82323,0.814 -1.23484,2.83019 -1.2348,6.04866 l 0,8.26837 c -4e-5,2.25676 0.0576,3.57002 0.17224,3.93998 0.34447,1.14688 1.34003,1.72031 2.98643,1.72027 0.45951,4e-5 1.11036,-0.0176 1.9527,-0.054 0.88061,8e-5 1.53151,8e-5 1.9527,0 7.50442,8e-5 14.24313,-0.12962 20.21609,-0.38842 2.33553,-0.0743 5.09226,-0.25967 8.27022,-0.55494 0.80398,-0.0743 1.20601,0.25968 1.20606,0.99889 -5e-5,1.18392 -0.14368,2.99668 -0.4306,5.43832 -0.28735,2.44169 -0.43059,4.27294 -0.43059,5.49372 -9e-5,0.66593 -0.57436,0.99889 -1.72299,0.99889 -0.45951,0 -2.1633,-0.12962 -5.11146,-0.38841 -2.14419,-0.22233 -6.96846,-0.33261 -14.47289,-0.33261 -6.31756,4e-5 -10.31866,0.0743 -12.00329,0.22232 -1.53155,0.11073 -2.41216,0.88795 -2.64187,2.3307 0.0395,-0.25967 0.0576,1.16538 0.0576,4.27295 l 0,8.21283 c -4e-5,3.84754 0.61259,6.25219 1.8378,7.21412 0.95719,0.77687 3.3502,1.16533 7.17902,1.16533 l 6.31756,-0.054 c 2.68009,0 10.20372,-0.44408 22.57082,-1.33186 l 0.86145,-0.054 c 0.76571,-0.0743 1.14859,0.38841 1.14868,1.3873 z"
           id="path5383"
           style="font-size:19.2929039px;font-style:normal;font-variant:normal;font-weight:normal;font-stretch:normal;text-align:start;line-height:125%;letter-spacing:0px;word-spacing:0px;writing-mode:lr-tb;text-anchor:start;fill:#000000;fill-opacity:1;stroke:none;font-family:Berlin Sans FB;-inkscape-font-specification:Berlin Sans FB" />
        <path
           d="m 249.79409,487.11191 c -9e-5,5.17939 -0.28735,8.86035 -0.86149,11.04307 -0.26803,1.07279 -0.93813,1.60923 -2.01013,1.60923 -2.83336,0 -7.08332,-0.15686 -12.74994,-0.47163 -5.66666,-0.3146 -9.91662,-0.47163 -12.74989,-0.47163 -2.68023,0 -6.68128,0.054 -12.00334,0.16652 -5.32205,0.11073 -9.32315,0.16653 -12.00329,0.16653 -0.95719,0 -1.43581,-0.46262 -1.43581,-1.3873 0,-4.03247 0.14368,-10.11813 0.43059,-18.25706 0.28692,-8.13889 0.4306,-14.24304 0.4306,-18.31251 0,-4.29135 -0.2008,-10.71924 -0.60301,-19.28367 -0.40203,-8.56426 -0.6031,-14.99206 -0.60301,-19.28354 0,-0.81383 0.47858,-1.22087 1.43577,-1.22091 0.68921,4e-5 1.7421,0.054 3.1588,0.16652 1.41661,0.1116 2.4887,0.16653 3.21619,0.16653 0.68917,1.3e-4 1.76122,-0.054 3.21619,-0.16653 1.45492,-0.11072 2.52701,-0.16608 3.21618,-0.16652 0.91892,4e-5 1.37839,0.35194 1.37839,1.05442 0,3.92153 -0.15335,9.82221 -0.45947,17.70208 -0.30624,7.87991 -0.4595,13.79913 -0.45946,17.75752 0,1.92384 0,4.84643 0,8.76791 -0.0395,3.92148 -0.0576,6.84407 -0.0576,8.76777 -4e-5,8.21288 0.34448,12.31935 1.03378,12.3193 14.12823,5e-5 24.79146,-0.33261 31.98967,-0.9988 0.34448,-0.0351 1.22517,-0.16653 2.64187,-0.38841 1.14859,-0.22233 2.0292,-0.33262 2.64187,-0.33262 0.80398,5e-5 1.20602,0.35195 1.20606,1.05439 z"
           id="path5385"
           style="font-size:19.2929039px;font-style:normal;font-variant:normal;font-weight:normal;font-stretch:normal;text-align:start;line-height:125%;letter-spacing:0px;word-spacing:0px;writing-mode:lr-tb;text-anchor:start;fill:#000000;fill-opacity:1;stroke:none;font-family:Berlin Sans FB;-inkscape-font-specification:Berlin Sans FB" />
        <path
           d="m 327.55714,498.48785 c -1.3e-4,0.44409 -0.45968,0.66597 -1.37834,0.66597 -0.72757,0 -1.79013,-0.054 -3.18749,-0.16652 -1.39763,-0.11073 -2.4601,-0.16653 -3.1875,-0.16653 -0.72757,0 -1.81873,0.0541 -3.27365,0.16653 -1.45502,0.11072 -2.54622,0.16652 -3.27362,0.16652 -1.07213,0 -2.44094,-2.80237 -4.10641,-8.40717 -1.66557,-5.60467 -3.35982,-8.44404 -5.08273,-8.51803 -1.4167,-0.0743 -5.1115,-0.11072 -11.08437,-0.11072 l -9.07429,0 c -6.31756,0 -9.91662,0.0351 -10.79723,0.11072 -1.37839,0.11072 -2.84293,2.95963 -4.39356,8.5458 -1.55071,5.58625 -2.74719,8.3794 -3.58952,8.3794 l -12.92222,0 c -0.76576,0 -1.14863,-0.25923 -1.14863,-0.77695 0,-0.36952 0.26802,-1.20228 0.80407,-2.4971 l 14.07084,-37.18 c 1.18691,-2.99654 4.78601,-11.63478 10.79724,-25.915 1.07205,-2.36756 2.52697,-5.93758 4.36482,-10.71001 0.45946,-1.40572 0.95719,-2.10864 1.49324,-2.10868 0.72744,4e-5 1.79953,0.0923 3.21618,0.27769 1.41666,0.18498 2.4887,0.27725 3.21623,0.27725 0.68913,1.3e-4 1.73248,-0.10106 3.13003,-0.30494 1.39749,-0.20299 2.42169,-0.30493 3.07264,-0.30493 0.34447,9e-5 0.82313,0.68452 1.43581,2.05319 0.91883,2.07182 5.45598,13.22579 13.61139,33.46195 11.52467,28.44918 17.28694,42.80321 17.28707,43.06213 z m -26.76335,-30.6318 c -5e-5,-1.0728 -1.72304,-5.88218 -5.16889,-14.42802 -3.33113,-8.28687 -5.68582,-13.7251 -7.06416,-16.31482 -7.92565,19.53346 -11.88848,29.76249 -11.88844,30.68734 -4e-5,1.25791 1.45493,1.99774 4.36482,2.21972 0.15334,0.0352 2.02924,0.054 5.62835,0.054 l 5.91553,0 c 5.47513,0 8.21274,-0.73992 8.21279,-2.2198 z"
           id="path5387"
           style="font-size:19.2929039px;font-style:normal;font-variant:normal;font-weight:normal;font-stretch:normal;text-align:start;line-height:125%;letter-spacing:0px;word-spacing:0px;writing-mode:lr-tb;text-anchor:start;fill:#000000;fill-opacity:1;stroke:none;font-family:Berlin Sans FB;-inkscape-font-specification:Berlin Sans FB" />
        <path
           d="m 404.86074,459.80965 c -9e-5,10.39555 -3.0632,19.38535 -9.18915,26.96938 -6.66217,8.24979 -15.20045,12.37479 -25.61468,12.37479 -1.99101,0 -4.98711,-0.0743 -8.98817,-0.22232 -4.00114,-0.14807 -6.99715,-0.22233 -8.98812,-0.22233 -1.79949,0 -4.50841,0.0743 -8.12667,0.22233 -3.61818,0.14807 -6.32706,0.22232 -8.12659,0.22232 -0.95723,0 -1.43581,-0.46262 -1.43581,-1.3873 0,-4.03247 0.16301,-10.11813 0.48842,-18.25706 0.32558,-8.13888 0.48841,-14.24304 0.48841,-18.31251 0,-4.29135 -0.1529,-10.74696 -0.45963,-19.36689 -0.30625,-8.61974 -0.45964,-15.07532 -0.45964,-19.3668 0,-0.77683 0.49738,-1.16529 1.4932,-1.16533 1.41669,4e-5 3.53205,0.0176 6.34625,0.054 2.81424,0.0351 4.9296,0.0541 6.3463,0.0541 1.3018,4e-5 3.29272,-0.0176 5.97291,-0.0541 2.68014,-0.0351 4.70934,-0.054 6.08781,-0.054 13.28589,4e-5 23.18332,2.42319 29.69236,7.26948 4.67107,3.47753 8.28938,8.15743 10.85471,14.03961 2.41207,5.47527 3.61809,11.20951 3.61822,17.20263 z m -14.07085,0 c -5e-5,-7.99086 -2.35478,-14.50192 -7.06421,-19.53333 -4.90086,-5.21621 -11.44813,-7.82438 -19.64172,-7.82446 -6.77707,8e-5 -9.51468,-0.0352 -8.21279,-0.11073 -4.47976,0.22233 -6.71956,1.01748 -6.71956,2.3862 0,2.84864 -0.0672,7.11231 -0.20123,12.79101 -0.13445,5.67879 -0.20124,9.94238 -0.20124,12.79098 0,2.81169 0.0672,7.02909 0.20124,12.6523 0.13401,5.6233 0.20123,9.84061 0.20123,12.65226 0,1.40585 2.29718,2.21976 6.89184,2.44169 -0.61263,-0.0351 2.18241,-0.054 8.38507,-0.054 4.40313,0 7.90641,-0.44404 10.5101,-1.33181 3.21614,-1.10988 6.10692,-3.16311 8.67225,-6.15965 4.78592,-5.62325 7.17897,-12.52282 7.17902,-20.69875 z"
           id="path5389"
           style="font-size:19.2929039px;font-style:normal;font-variant:normal;font-weight:normal;font-stretch:normal;text-align:start;line-height:125%;letter-spacing:0px;word-spacing:0px;writing-mode:lr-tb;text-anchor:start;fill:#000000;fill-opacity:1;stroke:none;font-family:Berlin Sans FB;-inkscape-font-specification:Berlin Sans FB" />
        <path
           d="m 489.97504,460.19691 c -4e-5,10.51348 -3.63738,19.55788 -10.91209,27.13322 -7.581,7.85854 -16.9999,11.78779 -28.25651,11.78779 -11.29501,0 -20.7139,-3.9116 -28.25664,-11.7347 -7.27471,-7.53998 -10.91208,-16.60203 -10.91208,-27.18631 0,-10.478 3.67564,-19.52239 11.02698,-27.13321 7.58096,-7.89391 16.96154,-11.84085 28.14174,-11.84094 11.21834,9e-5 20.61804,3.94703 28.19908,11.84094 7.31299,7.57538 10.96948,16.61977 10.96952,27.13321 z m -13.84105,-0.15934 c -1.3e-4,-6.93815 -2.33567,-12.97364 -7.00678,-18.10648 -4.90086,-5.4514 -11.04614,-8.1771 -18.43571,-8.17715 -7.31302,5e-5 -13.40088,2.76111 -18.26334,8.28334 -4.59457,5.16825 -6.89192,11.22144 -6.89183,18.15958 -9e-5,6.90284 2.29726,12.93833 6.89183,18.10658 4.86246,5.52219 10.95032,8.28333 18.26334,8.28325 7.42784,8e-5 13.59223,-2.76106 18.49318,-8.28325 4.63276,-5.16825 6.94918,-11.25684 6.94931,-18.26587 z"
           id="path5391"
           style="font-size:19.2929039px;font-style:normal;font-variant:normal;font-weight:normal;font-stretch:normal;text-align:start;line-height:125%;letter-spacing:0px;word-spacing:0px;writing-mode:lr-tb;text-anchor:start;fill:#4e917a;fill-opacity:1;stroke:none;font-family:Berlin Sans FB;-inkscape-font-specification:Berlin Sans FB" />
        <path
           d="m 580.08604,497.76652 c -5e-5,0.92486 -0.47884,1.3873 -1.43581,1.3873 -0.68926,0 -1.73262,-0.054 -3.13007,-0.16652 -1.39759,-0.11073 -2.44099,-0.16653 -3.13007,-0.16653 -0.68926,0 -1.74215,0.0541 -3.15871,0.16653 -1.41679,0.11072 -2.46968,0.16652 -3.15881,0.16652 -0.95728,0 -1.43585,-0.61043 -1.43581,-1.83125 -4e-5,-4.69831 0.15291,-11.7459 0.45964,-21.14261 0.30625,-9.39671 0.45906,-16.44426 0.45968,-21.14265 -9e-5,-0.70288 -0.15291,-1.0543 -0.45968,-1.05434 -0.34448,4e-5 -0.61268,0.20387 -0.80407,0.61039 -1.95274,4.03246 -6.56647,14.79806 -13.84114,32.29662 -1.18699,3.36654 -2.89078,7.56549 -5.11146,12.59676 -0.26846,0.4806 -1.64645,0.72147 -4.13511,0.72147 -3.59915,0 -5.59012,-0.3146 -5.97291,-0.9434 -1.30189,-2.99663 -3.15885,-7.19553 -5.57097,-12.59676 -3.17787,-7.32507 -8.05962,-18.23852 -14.64512,-32.74058 -0.11511,-0.25967 -0.3638,-0.51781 -0.74664,-0.77691 -0.30625,0.22232 -0.45968,0.62893 -0.45968,1.22082 0,4.77243 0.0857,11.93093 0.25836,21.47562 0.17268,9.54469 0.25835,16.70322 0.25835,21.47557 0,1.22082 -0.47879,1.83125 -1.43572,1.83125 -0.65094,0 -1.64645,-0.054 -2.98648,-0.16652 -1.34011,-0.11073 -2.33562,-0.16653 -2.98652,-0.16653 -0.68921,0 -1.71346,0.0541 -3.07259,0.16653 -1.35923,0.11072 -2.38343,0.16652 -3.0726,0.16652 -0.95724,0 -1.43581,-0.35194 -1.43581,-1.05434 0,-4.10641 0.20123,-10.25684 0.60292,-18.4513 0.40159,-8.19439 0.603,-14.34472 0.603,-18.45123 0,-4.25435 -0.20123,-10.6452 -0.603,-19.17259 -0.4016,-8.5273 -0.60292,-14.9182 -0.60292,-19.17269 0,-0.70279 0.44048,-1.10974 1.32091,-1.22086 5.20716,-0.6658 9.13167,-0.99876 11.77354,-0.99881 0.38314,5e-5 0.91888,0.75842 1.60809,2.27517 9.26577,19.6814 17.2297,37.25394 23.89178,52.71776 1.56978,3.62556 2.50786,5.43832 2.8142,5.43832 0.3827,0 1.20601,-1.4798 2.46959,-4.43938 5.20711,-11.98634 12.42444,-29.78086 21.65185,-53.38378 0.5741,-1.44267 1.20606,-2.16409 1.89532,-2.16414 1.30171,5e-5 3.26394,0.0743 5.88675,0.22233 2.62266,0.14807 4.58494,0.22189 5.88679,0.22189 0.9571,9e-5 1.43577,0.44408 1.43581,1.33185 -4e-5,4.25449 -0.14368,10.64539 -0.43103,19.17269 -0.28692,8.52739 -0.43104,14.91824 -0.43104,19.1726 -4e-5,4.06946 0.16301,10.17362 0.48842,18.3125 0.32558,8.13894 0.48842,14.22459 0.48842,18.25706 z"
           id="path5393"
           style="font-size:19.2929039px;font-style:normal;font-variant:normal;font-weight:normal;font-stretch:normal;text-align:start;line-height:125%;letter-spacing:0px;word-spacing:0px;writing-mode:lr-tb;text-anchor:start;fill:#000000;fill-opacity:1;stroke:none;font-family:Berlin Sans FB;-inkscape-font-specification:Berlin Sans FB" />
        <path
           d="m 668.28423,460.53738 c -4e-5,10.63199 -3.63742,19.77834 -10.91209,27.43907 -7.58109,7.94713 -16.9999,11.92067 -28.25655,11.92067 -11.29505,0 -20.71386,-3.95569 -28.25659,-11.86697 -7.2748,-7.62498 -10.91209,-16.78918 -10.91209,-27.49277 0,-10.59611 3.6756,-19.74246 11.02698,-27.43907 7.58096,-7.98289 16.96154,-11.97432 28.1417,-11.97441 11.21838,9e-5 20.61808,3.99152 28.19912,11.97441 7.31299,7.66077 10.96948,16.80712 10.96952,27.43907 z m -13.8411,-0.16114 c -1.3e-4,-7.01635 -2.33562,-13.11989 -7.00673,-18.31058 -4.90095,-5.51285 -11.04614,-8.26927 -18.43571,-8.26932 -7.31307,5e-5 -13.40083,2.79223 -18.26343,8.37671 -4.59452,5.2265 -6.89183,11.34793 -6.89179,18.36428 -4e-5,6.98065 2.29727,13.08418 6.89179,18.31068 4.8626,5.58444 10.95036,8.37671 18.26343,8.37662 7.42784,9e-5 13.59223,-2.79218 18.4931,-8.37662 4.63284,-5.2265 6.94921,-11.38373 6.94934,-18.47177 z"
           id="path5395"
           style="font-size:19.2929039px;font-style:normal;font-variant:normal;font-weight:normal;font-stretch:normal;text-align:start;line-height:125%;letter-spacing:0px;word-spacing:0px;writing-mode:lr-tb;text-anchor:start;fill:#4e917a;fill-opacity:1;stroke:none;font-family:Berlin Sans FB;-inkscape-font-specification:Berlin Sans FB" />
        <path
           d="m 291.55527,367.98494 -6.23404,-10.79766 12.46807,0 z"
           transform="matrix(-0.20892669,-0.77933356,3.0506655,-0.81783395,-397.91626,979.27147)"
           id="path3037"
           style="fill:#000000;stroke:#000000;stroke-width:0.22759253" />
        <path
           d="m 291.55527,367.98494 -6.23404,-10.79766 12.46807,0 z"
           transform="matrix(-0.51442699,0.62159153,-2.4331915,-2.0137008,1646.838,997.30118)"
           id="path3039"
           style="fill:#000000;stroke:#000000;stroke-width:0.22759253" />
        <path
           d="m 308.92857,384.86218 a 1.4285715,1.4285715 0 1 1 -2.85714,0 1.4285715,1.4285715 0 1 1 2.85714,0 z"
           transform="matrix(4.873625,0,0,4.873625,-869.52411,-1415.1633)"
           id="path3035"
           style="fill:#000000;stroke:#000000;stroke-width:0.22759253" />
        <path
           d="m 291.55527,367.98494 -6.23404,-10.79766 12.46807,0 z"
           transform="matrix(0.58947611,-0.55093473,2.1566089,2.3074772,-491.48948,-201.46275)"
           id="path5366"
           style="fill:#000000;stroke:#000000;stroke-width:0.22759253" />
        <path
           d="m 291.55527,367.98494 -6.23404,-10.79766 12.46807,0 z"
           transform="matrix(-0.04122767,0.80579868,-3.1542617,-0.16138381,1586.4205,283.20254)"
           id="path5368"
           style="fill:#000000;stroke:#000000;stroke-width:0.22759253" />
        <path
           d="m 308.92857,384.86218 a 1.4285715,1.4285715 0 1 1 -2.85714,0 1.4285715,1.4285715 0 1 1 2.85714,0 z"
           transform="matrix(4.8736248,0,0,4.8736248,-1049.0921,-1415.1633)"
           id="path5370"
           style="fill:#000000;stroke:#000000;stroke-width:0.22759253" />
        <path
           d="m 280.00001,371.29074 c 0,10.65121 -8.63451,19.28572 -19.28572,19.28572 -10.6512,0 -19.28571,-8.63451 -19.28571,-19.28572 0,-10.65121 8.63451,-19.28571 19.28571,-19.28571 10.65121,0 19.28572,8.6345 19.28572,19.28571 z"
           transform="matrix(2.0058935,0,0,2.0058935,-72.158719,-284.59933)"
           id="path5364"
           style="fill:none;stroke:#000000;stroke-width:1.99412382;stroke-linecap:round;stroke-linejoin:round;stroke-miterlimit:4;stroke-opacity:1;stroke-dashoffset:0" />
        <path
           d="m 280.00001,371.29074 c 0,10.65121 -8.63451,19.28572 -19.28572,19.28572 -10.6512,0 -19.28571,-8.63451 -19.28571,-19.28572 0,-10.65121 8.63451,-19.28571 19.28571,-19.28571 10.65121,0 19.28572,8.6345 19.28572,19.28571 z"
           transform="matrix(2.0058935,0,0,2.0058935,106.15048,-284.25915)"
           id="path3033"
           style="fill:none;stroke:#000000;stroke-width:1.99412382;stroke-linecap:round;stroke-linejoin:round;stroke-miterlimit:4;stroke-opacity:1;stroke-dashoffset:0" />
      </g>
    </g>
  </g>
</svg>
